<svg width="128" height="128" viewBox="0 0 128 128" fill="none" xmlns="http://www.w3.org/2000/svg">
    <path
        d="M30.7913 0C29.9124 2.7379e-05 29.0624 0.31384 28.3944 0.884924C27.7263 1.45601 27.2842 2.24685 27.1474 3.11501L12.0367 98.9356C11.9691 99.3634 11.9951 99.8007 12.1127 100.217C12.2304 100.634 12.437 101.021 12.7183 101.35C12.9996 101.679 13.349 101.943 13.7423 102.125C14.1355 102.306 14.5635 102.4 14.9965 102.4H37.4056L42.9697 67.115L49.0257 28.715C49.1629 27.8472 49.6052 27.0569 50.2732 26.4862C50.9412 25.9155 51.7909 25.602 52.6695 25.602H84.775C90.6146 25.602 95.9429 26.9627 100.481 29.3399C100.79 13.2697 87.5298 0 69.2961 0H30.7913Z"
        fill="#003087" />
    <path
        d="M52.6701 25.6016C51.7915 25.6015 50.9418 25.915 50.2738 26.4857C49.6058 27.0564 49.1635 27.8467 49.0263 28.7145L42.9703 67.1146L37.4062 102.4L37.4028 102.429L37.4096 102.4L42.9737 67.1146C43.2566 65.3212 44.8006 64.0016 46.6155 64.0016H64.3567C82.2116 64.0016 97.366 50.9751 100.134 33.3232C100.345 31.9821 100.457 30.6537 100.483 29.3428V29.3408H100.481C95.9435 26.9602 90.6152 25.6016 84.7769 25.6016H52.6701Z"
        fill="#001C64" />
    <path
        d="M100.482 29.3418C100.457 30.6527 100.343 31.9824 100.132 33.3236C97.3646 50.9755 82.2102 64.0019 64.3554 64.0019H46.6141C44.7993 64.0019 43.2552 65.3215 42.9723 67.1149L37.4082 102.4L33.9163 124.537C33.849 124.965 33.8752 125.402 33.993 125.819C34.1108 126.235 34.3175 126.621 34.5987 126.95C34.88 127.279 35.2292 127.544 35.6224 127.725C36.0155 127.906 36.4432 128 36.876 128H56.1332C57.0118 128 57.8615 127.686 58.5295 127.116C59.1975 126.545 59.6398 125.755 59.777 124.887L64.8499 92.7149C65.1341 90.9215 66.6789 89.5999 68.4937 89.5999H79.833C97.6878 89.5999 112.84 76.5741 115.608 58.9236C117.572 46.393 111.267 34.994 100.482 29.3418Z"
        fill="#0070E0" />
</svg>
    