<svg width="223" height="80" viewBox="0 0 223 80" fill="none" xmlns="http://www.w3.org/2000/svg">
<mask id="mask0_1357_3993" style="mask-type:alpha" maskUnits="userSpaceOnUse" x="0" y="0" width="80" height="80">
<path d="M76.5358 51.5509C77.9062 52.4361 79.2316 53.7555 79.7032 55.56V0.458984H0.156734L0.156734 56.4732C0.443387 55.4073 1.11947 54.4355 1.8892 53.5448C1.70473 52.7552 1.69393 51.8958 1.98706 50.9788C2.4339 49.581 3.48455 48.4097 4.75484 47.3228C6.01496 46.2446 7.85266 45.7279 9.18327 45.4845C9.90344 45.3527 10.6094 45.2773 11.2174 45.2579C11.3881 45.2524 11.5594 45.2511 11.7277 45.2552C12.78 44.4978 13.8859 43.8567 15.143 43.6156C16.5577 43.3442 17.8811 43.6215 19.2187 44.1741C20.7796 43.1211 22.5972 42.6588 24.4918 42.9176C26.3142 43.1665 28.0294 44.056 29.5414 45.4319C31.5963 44.5029 33.7693 44.4555 35.536 44.9679C36.663 45.2948 37.7578 45.8885 38.5468 46.7795C38.5598 46.7942 38.5727 46.8089 38.5855 46.8238C39.1655 46.587 39.7514 46.4103 40.3632 46.3096C41.7014 46.0892 42.9596 46.2643 44.2977 46.6117C45.6399 45.6474 47.1427 45.0556 48.7992 44.9647C50.2883 44.883 51.7608 45.2138 53.2013 45.8619C54.3332 44.8339 55.5393 44.1232 56.9528 43.8585C58.4726 43.574 59.9595 43.8659 61.4071 44.3275C62.5825 43.7648 63.7926 43.566 65.094 43.8654C66.2429 44.1298 67.3058 44.7655 68.2744 45.4286C69.2513 45.3952 70.4071 45.5737 71.4072 46.5031C72.3393 47.3692 72.8498 48.6633 73.227 50.0654C74.4016 50.4121 75.5414 50.9086 76.5358 51.5509Z" fill="black"/>
<path d="M5.39267 65.5953C4.78473 65.1417 4.35328 64.6807 3.91613 64.1306C3.43811 63.8764 2.84043 63.5146 2.34083 62.9725C1.73913 62.3197 1.38645 61.5489 1.16842 60.684C0.715746 60.1032 0.351991 59.4635 0.156734 58.7628V79.5225L40.8595 79.5316C40.1396 79.4933 39.4587 79.3432 38.8121 79.1642C37.9232 79.3806 37.0842 79.533 36.2407 79.5225C35.208 79.5098 34.3181 79.2591 33.3921 78.8744C32.1508 79.2005 30.9021 79.266 29.6639 79.0303C28.3853 78.7869 27.2168 78.2412 26.1538 77.4726C24.5905 77.5644 23.1305 77.5225 21.8245 77.0878C20.5945 76.6783 19.6438 75.9763 18.8554 75.0413C18.5558 75.0697 18.2698 75.0894 17.9987 75.0977C17.354 75.1177 16.6517 75.0805 15.9717 74.8605C14.8198 74.4877 14.1369 73.7399 13.6968 72.9436C12.7823 72.8848 11.8323 72.6922 10.9404 72.2547C9.70527 71.6489 8.75283 70.6591 8.15632 69.3119C7.52662 68.9856 6.88688 68.5462 6.37416 67.8931C5.82851 67.198 5.54063 66.4141 5.39267 65.5953Z" fill="black"/>
<path d="M43.9431 78.9577C43.1467 79.2893 42.3704 79.4879 41.5545 79.5317L79.7032 79.5402L79.5277 60.2997C78.9847 61.6457 77.9908 62.7542 76.5591 63.5377C76.5039 63.8251 76.4197 64.105 76.3074 64.3754C75.9597 65.2125 75.3978 65.8293 74.8621 66.2669C74.3439 66.6902 73.776 67.0059 73.2596 67.2378C72.9789 68.122 72.4949 69.0226 71.5693 69.761C70.5484 70.5754 69.1969 71.0161 67.5951 71.3036C67.1049 72.0486 66.5256 72.7188 65.7647 73.2296C64.9344 73.7871 64.0421 74.0535 63.126 74.1798C62.4503 74.8505 61.6803 75.4107 60.7075 75.7588C59.7657 76.0958 58.7805 76.1797 57.7493 76.1421C57.0991 76.6752 56.4003 77.1016 55.5611 77.3863C54.4572 77.7608 53.288 77.8252 52.0253 77.8242C50.8477 78.6403 49.6249 79.1859 48.1968 79.3611C46.8273 79.5292 45.4335 79.3336 43.9431 78.9577Z" fill="black"/>
<path d="M5.36407 62.3764C4.19685 61.7809 3.53979 61.4456 3.22457 59.6772C1.47384 57.7516 2.10925 56.474 4.44672 54.0479C3.55549 52.3636 3.83877 51.0311 6.19949 49.0112C7.78847 47.6516 11.5845 47.2765 12.3473 47.5668C14.0712 46.2368 15.219 45.6059 16.652 45.7537C16.8772 45.777 17.1094 45.8194 17.3521 45.8814C17.8387 46.0058 18.3672 46.2088 18.9643 46.4928C18.329 47.0063 18.0722 47.7215 17.9656 48.4785C17.9134 48.8498 17.8973 49.2312 17.8903 49.6037C17.9654 49.0634 18.5326 47.8495 19.3474 46.9668C19.4037 46.9059 19.4611 46.8465 19.5196 46.7891C20.2047 46.1167 20.9603 45.639 21.7569 45.3605C24.1159 44.5356 26.8347 45.4562 29.1489 48.2334C31.7595 46.2705 34.9653 46.6563 36.5082 47.8973C37.2079 48.4601 37.5656 49.1988 37.3706 49.9741C38.2154 49.4521 38.9215 49.0725 39.5769 48.8208C40.3156 48.5372 40.9897 48.4159 41.7253 48.4361C41.9202 48.4414 42.1195 48.4567 42.3255 48.4816C42.8617 48.5463 43.4431 48.6757 44.1109 48.863C43.5417 49.6247 43.265 50.2187 43.0791 50.8874C42.9588 51.3199 42.8766 51.7837 42.7777 52.3443C42.9013 52.0832 43.0102 51.842 43.1121 51.6161L43.1123 51.6158C43.2151 51.3879 43.3109 51.1756 43.4078 50.974C43.487 50.8093 43.567 50.6518 43.6521 50.4989C43.8955 50.0617 44.1812 49.6618 44.6128 49.2382C44.6768 49.1754 44.7439 49.1122 44.8146 49.0482C45.6376 48.3032 46.4966 47.7776 47.3951 47.4764C49.2863 46.8424 51.3529 47.2025 53.6289 48.6038C56.363 45.491 58.1828 45.5042 61.6284 46.7521C63.9067 45.2623 65.2507 45.9978 67.665 47.715C69.0728 47.5167 69.885 47.6917 70.5315 49.0631C70.6036 49.216 70.6736 49.3838 70.7422 49.5676C70.9203 50.0451 71.0886 50.6307 71.2574 51.3444C70.3033 51.2315 69.5713 51.2802 68.9822 51.4C68.3492 51.5287 67.8811 51.7396 67.4798 51.9204C67.1714 52.0594 66.9023 52.1806 66.6281 52.2332C66.977 52.1696 67.2898 52.1087 67.577 52.0528C68.1533 51.9406 68.6263 51.8485 69.0806 51.7955C69.2254 51.7785 69.3684 51.7656 69.5121 51.7572C70.022 51.7276 70.5424 51.7555 71.1954 51.8685C71.2521 51.8783 71.3097 51.8888 71.3685 51.8999C72.2236 52.0615 73.0683 52.3126 73.8477 52.6416C75.6873 53.4182 77.1631 54.6288 77.5533 56.1218C78.1088 58.2475 77.8418 60.9325 74.3313 62.0844C74.8985 64.3039 72.4184 65.2688 71.3685 65.5657C71.0108 67.7337 70.282 68.7185 66.2207 69.2692C65.1049 71.3196 64.2 71.9347 62.0728 72.0468C60.6612 73.6984 59.5509 74.1097 56.962 73.8615C56.4087 74.4034 55.9237 74.7831 55.4068 75.0463C55.1588 75.1726 54.9035 75.272 54.6298 75.3496C53.933 75.5473 53.117 75.6038 51.9993 75.6021C52.9125 74.885 53.4607 74.2416 53.7271 73.2793C53.8544 72.8197 53.9174 72.2873 53.9251 71.6394C53.6977 72.3162 53.4868 72.8643 53.2463 73.3397C52.9224 73.9799 52.5447 74.4885 52.0002 75.0023C51.9126 75.085 51.8206 75.1679 51.7239 75.2514C51.5906 75.3665 51.4483 75.4829 51.2957 75.6021C49.6461 76.8906 48.2782 77.3447 46.4172 77.1608C45.6321 77.0832 44.7593 76.892 43.7406 76.6021C41.7995 77.597 40.7371 77.4309 38.852 76.8613C38.2198 77.0274 37.6982 77.1496 37.2363 77.2224C37.016 77.2571 36.8093 77.2806 36.6106 77.2923C35.7622 77.3423 35.0603 77.1769 34.0745 76.7502C34.8197 76.4795 35.61 75.8573 36.1096 75.0683C36.2262 74.8842 36.327 74.691 36.4077 74.4911C36.3373 74.5571 36.2671 74.6235 36.1969 74.69L36.1968 74.69C36.0794 74.8012 35.9616 74.9126 35.8417 75.0231C35.4001 75.4302 34.9291 75.8247 34.3358 76.1466C34.206 76.217 34.0704 76.2839 33.9279 76.3467C33.8435 76.3839 33.7566 76.4197 33.6671 76.4539C31.8479 77.1497 30.1774 77.1041 28.621 76.3671C28.015 76.0802 27.4262 75.6884 26.8527 75.1947C23.0849 75.5068 21.4046 75.1479 19.8902 72.6764C18.8357 72.8265 18.0461 72.9035 17.4392 72.8741C17.0855 72.857 16.7939 72.8038 16.5481 72.7079C15.9506 72.4749 15.6241 71.9896 15.3349 71.158C15.8475 71.1915 16.4237 70.9445 16.9282 70.6041C17.396 70.2884 17.8021 69.8924 18.0385 69.5655C17.4664 69.9498 16.4856 70.5356 15.3658 70.6871C15.2822 70.6984 15.1978 70.7073 15.1127 70.7135C14.2889 70.7737 13.4938 70.7458 12.7773 70.568C11.4582 70.2406 10.4051 69.4054 9.92786 67.6767C8.26672 67.0014 7.58818 66.3935 7.48357 64.3065C6.44089 63.7106 6.02955 63.2526 5.37259 62.3807L5.36407 62.3764Z" fill="black"/>
</mask>
<g mask="url(#mask0_1357_3993)">
<path d="M22.1487 34.5299L23.6299 46.4551C23.6299 46.4551 20.9619 47.3854 19.1857 47.6772C17.3706 47.9755 14.0379 48.0106 14.0379 48.0106C12.945 36.1931 12.1733 24.4415 11.1494 12.4202L21.2494 9.74893L20.9994 10.4989C23.2494 8.74893 26.2494 8.24893 26.2494 8.24893C26.2494 8.24893 25.6502 9.05721 25.7494 8.99893C29.9741 8.28629 32.315 7.66942 36.4441 6.12427C37.3533 10.6104 37.6853 13.1906 37.9626 17.9013C31.2104 19.4652 27.4284 20.2862 20.7044 21.4567L21.2969 26.6415C24.8805 26.0665 27.0189 25.6001 31.0371 24.7527C32.0063 27.2831 32.082 29.0741 31.8889 32.53C28.0676 33.3819 25.9463 33.8331 22.1487 34.5299Z" fill="#F5F5F5"/>
<path d="M65.5 36.5001C60.75 38.7501 55 39.2501 55 39.2501C59.25 31.5001 66.591 21.5001 66.591 11.5696L54.25 12.0001L54.75 12.7501C52 11.2501 48.5 12.0001 48.5 12.0001L49 12.7501L43.25 14.2092C42.2797 17.4656 42.0104 19.7546 41.75 24.2092C47.5 22.0001 54.25 21.5001 54.25 21.5001C54.25 26.7501 42.296 37.5001 42.296 49.1969H44.407L53.0361 48.6043L61.1467 47.6414C61.1467 47.6414 64.4305 46.7427 65.1464 44.4564C65.8624 42.1701 65.9705 36.9172 65.5 36.5001Z" fill="#F5F5F5"/>
<path d="M29.1481 48.2335C32.9427 45.3802 37.9947 47.4894 37.3698 49.9741C40.0762 48.3018 41.3596 48.0916 44.1101 48.8631C43.1727 50.1172 43.0287 50.9168 42.7769 52.3443C43.4615 50.8986 43.692 50.0637 44.8138 49.0482C47.369 46.7353 50.2708 46.5367 53.6281 48.6038C56.3622 45.491 58.182 45.5042 61.6276 46.7521C63.9059 45.2623 65.2499 45.9978 67.6642 47.715C69.6367 47.4372 70.4399 47.8921 71.2566 51.3444C68.4895 51.017 67.5906 52.0486 66.6273 52.2332C68.7601 51.8447 69.5442 51.5552 71.3677 51.8999C74.2412 52.4431 76.997 53.9963 77.5525 56.1219C78.108 58.2475 77.841 60.9325 74.3305 62.0845C74.8977 64.3039 72.4177 65.2688 71.3677 65.5657C71.0101 67.7337 70.2813 68.7185 66.2199 69.2692C65.1041 71.3196 64.1992 71.9347 62.072 72.0468C60.6604 73.6984 59.5501 74.1098 56.9612 73.8615C55.467 75.325 54.4704 75.6059 51.9985 75.6022C53.3478 74.5425 53.9004 73.6438 53.9244 71.6394C53.2734 73.5763 52.7585 74.4589 51.2949 75.6022C48.9494 77.4342 47.1733 77.5793 43.7398 76.6021C41.7987 77.597 40.7363 77.4309 38.8512 76.8613C36.6302 77.4449 35.7745 77.4863 34.0737 76.7502C34.9928 76.4163 35.9805 75.5479 36.4069 74.4911C35.634 75.2157 34.8959 75.9837 33.6663 76.454C31.1387 77.4207 28.8983 76.9562 26.852 75.1948C23.0841 75.5069 21.4038 75.1479 19.8894 72.6764C16.7262 73.1267 15.9463 72.9187 15.3341 71.158C16.322 71.2227 17.5465 70.2449 18.0377 69.5655C17.4229 69.9785 16.3361 70.6242 15.1119 70.7136C12.7716 70.8845 10.6636 70.3445 9.92708 67.6767C8.26593 67.0014 7.5874 66.3935 7.48278 64.3066C6.44011 63.7107 6.02876 63.2526 5.37181 62.3807L5.3633 62.3764C4.19607 61.7809 3.53901 61.4457 3.22379 59.6772C1.47305 57.7516 2.10846 56.4741 4.44594 54.0479C3.55471 52.3636 3.83799 51.0311 6.19871 49.0112C7.78768 47.6516 11.5838 47.2765 12.3465 47.5668C14.8848 45.6085 16.174 45.166 18.9636 46.4928C18.0165 47.2582 17.9106 48.4718 17.8895 49.6038C17.9698 49.0261 18.6124 47.6788 19.5189 46.7891C22.2326 44.1256 26.0524 44.5183 29.1481 48.2335Z" fill="#F5F5F5"/>
</g>
<path d="M105.84 57.336C103.376 57.336 101.168 56.936 99.2159 56.136C97.2639 55.336 95.6959 54.152 94.5119 52.584C93.3599 51.016 92.7519 49.128 92.6879 46.92H101.424C101.552 48.168 101.984 49.128 102.72 49.8C103.456 50.44 104.416 50.76 105.6 50.76C106.816 50.76 107.776 50.488 108.48 49.944C109.184 49.368 109.536 48.584 109.536 47.592C109.536 46.76 109.248 46.072 108.672 45.528C108.128 44.984 107.44 44.536 106.608 44.184C105.808 43.832 104.656 43.432 103.152 42.984C100.976 42.312 99.1999 41.64 97.8239 40.968C96.4479 40.296 95.2639 39.304 94.2719 37.992C93.2799 36.68 92.7839 34.968 92.7839 32.856C92.7839 29.72 93.9199 27.272 96.1919 25.512C98.4639 23.72 101.424 22.824 105.072 22.824C108.784 22.824 111.776 23.72 114.048 25.512C116.32 27.272 117.536 29.736 117.696 32.904H108.816C108.752 31.816 108.352 30.968 107.616 30.36C106.88 29.72 105.936 29.4 104.784 29.4C103.792 29.4 102.992 29.672 102.384 30.216C101.776 30.728 101.472 31.48 101.472 32.472C101.472 33.56 101.984 34.408 103.008 35.016C104.032 35.624 105.632 36.28 107.808 36.984C109.984 37.72 111.744 38.424 113.088 39.096C114.464 39.768 115.648 40.744 116.64 42.024C117.632 43.304 118.128 44.952 118.128 46.968C118.128 48.888 117.632 50.632 116.64 52.2C115.68 53.768 114.272 55.016 112.416 55.944C110.56 56.872 108.368 57.336 105.84 57.336ZM152.363 23.304V57H144.155V43.128H131.387V57H123.179V23.304H131.387V36.504H144.155V23.304H152.363ZM174.225 57.336C171.057 57.336 168.145 56.6 165.489 55.128C162.865 53.656 160.769 51.608 159.201 48.984C157.664 46.328 156.896 43.352 156.896 40.056C156.896 36.76 157.664 33.8 159.201 31.176C160.769 28.552 162.865 26.504 165.489 25.032C168.145 23.56 171.057 22.824 174.225 22.824C177.393 22.824 180.289 23.56 182.913 25.032C185.569 26.504 187.649 28.552 189.153 31.176C190.689 33.8 191.457 36.76 191.457 40.056C191.457 43.352 190.689 46.328 189.153 48.984C187.617 51.608 185.537 53.656 182.913 55.128C180.289 56.6 177.393 57.336 174.225 57.336ZM174.225 49.848C176.913 49.848 179.057 48.952 180.656 47.16C182.289 45.368 183.105 43 183.105 40.056C183.105 37.08 182.289 34.712 180.656 32.952C179.057 31.16 176.913 30.264 174.225 30.264C171.505 30.264 169.329 31.144 167.697 32.904C166.097 34.664 165.297 37.048 165.297 40.056C165.297 43.032 166.097 45.416 167.697 47.208C169.329 48.968 171.505 49.848 174.225 49.848ZM221.703 34.152C221.703 36.104 221.255 37.896 220.359 39.528C219.463 41.128 218.087 42.424 216.231 43.416C214.375 44.408 212.071 44.904 209.319 44.904H204.231V57H196.023V23.304H209.319C212.007 23.304 214.279 23.768 216.135 24.696C217.991 25.624 219.383 26.904 220.311 28.536C221.239 30.168 221.703 32.04 221.703 34.152ZM208.695 38.376C210.263 38.376 211.431 38.008 212.199 37.272C212.967 36.536 213.351 35.496 213.351 34.152C213.351 32.808 212.967 31.768 212.199 31.032C211.431 30.296 210.263 29.928 208.695 29.928H204.231V38.376H208.695Z" fill="white"/>
</svg>
